<svg xmlns="http://www.w3.org/2000/svg" viewBox="0 0 1440 320"><path fill="#ecfeff" fill-opacity="0.6" d="M0,192L8.6,176C17.1,160,34,128,51,106.7C68.6,85,86,75,103,74.7C120,75,137,85,154,117.3C171.4,149,189,203,206,224C222.9,245,240,235,257,208C274.3,181,291,139,309,101.3C325.7,64,343,32,360,26.7C377.1,21,394,43,411,53.3C428.6,64,446,64,463,53.3C480,43,497,21,514,16C531.4,11,549,21,566,42.7C582.9,64,600,96,617,106.7C634.3,117,651,107,669,85.3C685.7,64,703,32,720,37.3C737.1,43,754,85,771,112C788.6,139,806,149,823,170.7C840,192,857,224,874,245.3C891.4,267,909,277,926,240C942.9,203,960,117,977,101.3C994.3,85,1011,139,1029,186.7C1045.7,235,1063,277,1080,288C1097.1,299,1114,277,1131,245.3C1148.6,213,1166,171,1183,138.7C1200,107,1217,85,1234,69.3C1251.4,53,1269,43,1286,58.7C1302.9,75,1320,117,1337,149.3C1354.3,181,1371,203,1389,218.7C1405.7,235,1423,245,1431,250.7L1440,256L1440,320L1431.4,320C1422.9,320,1406,320,1389,320C1371.4,320,1354,320,1337,320C1320,320,1303,320,1286,320C1268.6,320,1251,320,1234,320C1217.1,320,1200,320,1183,320C1165.7,320,1149,320,1131,320C1114.3,320,1097,320,1080,320C1062.9,320,1046,320,1029,320C1011.4,320,994,320,977,320C960,320,943,320,926,320C908.6,320,891,320,874,320C857.1,320,840,320,823,320C805.7,320,789,320,771,320C754.3,320,737,320,720,320C702.9,320,686,320,669,320C651.4,320,634,320,617,320C600,320,583,320,566,320C548.6,320,531,320,514,320C497.1,320,480,320,463,320C445.7,320,429,320,411,320C394.3,320,377,320,360,320C342.9,320,326,320,309,320C291.4,320,274,320,257,320C240,320,223,320,206,320C188.6,320,171,320,154,320C137.1,320,120,320,103,320C85.7,320,69,320,51,320C34.3,320,17,320,9,320L0,320Z"></path></svg>